<svg xmlns="http://www.w3.org/2000/svg" xmlns:xlink="http://www.w3.org/1999/xlink" version="1.1" id="Layer_1" x="0px" y="0px" width="100px" height="100px" viewBox="0 0 100 100" enable-background="new 0 0 100 100" xml:space="preserve">
<path d="M76.198,13.399C69.34,10.477,59.813,4.766,50,4.766c-6.866,0-12.448,4.016-18.712,5.484  C14.866,14.101,8.298,31.428,5.946,48.82c-0.778,5.75,1.122,11.343,3.161,16.417c2.572,6.401,7.436,11.038,11.684,16.563  C27.123,90.035,38.836,91.906,50,92.875c22.737,1.974,26.801-8.106,39.545-24.617c3.993-5.173,4.001-12.479,4.51-19.438  C95.161,33.693,86.004,17.579,76.198,13.399z M45.936,12.147l9.979,9.858l-4.751,2.316l-7.366-8.255L45.936,12.147z M45.52,34.111  l6.278,1.267l2.585,4.306l-3.446,4.053l-7.879-4.053L45.52,34.111z M20.119,59.892l-6.531-6.474l3.965-3.907l5.015,4.688  L20.119,59.892z M22.567,30.069l5.776-5.549l5.436,3.963l-1.359,6.116h-5.889L22.567,30.069z M31.946,62.465l3.477-4.814  l8.461-1.851l2.898,8.64l-9.389,2.346L31.946,62.465z M53.857,85.744l-8.869-3.393l0.851-7.253l8.14,4.329l4.374,1.578  L53.857,85.744z M76.707,73.347l-4.883,0.494l-1.14-4.937l5.371-3.331l2.931,2.221L76.707,73.347z M76.429,56.932l-10.5-3.763  l3.267-7.951l12.249,3.939L76.429,56.932z M79.344,34.451l-8.659-3.678V24.52l8.135,1.226l2.625,5.027L79.344,34.451z" style="fill:orange;"/>
</svg>